0
SECTION
2
HEADER
9
$INSUNITS
70
4
0
ENDSEC
0
SECTION
2
ENTITIES
0
LWPOLYLINE
8
Edge.Cuts
90
158
70
1
10
-17.820988690219
20
-31.896872741532693
10
-17.8787
20
-31.866025403784445
10
-17.9342702330196
20
-31.831469612302552
10
-17.987461429008718
20
-31.793353340291237
10
-18.038045815100066
20
-31.751839807478984
10
-18.085806781186545
20
-31.70710678118655
10
-18.130539807478975
20
-31.65934581510007
10
-18.172053340291235
20
-31.608761429008727
10
-18.210169612302543
20
-31.555570233019605
10
-18.244725403784436
20
-31.500000000000004
10
-18.275572741532688
20
-31.442288690219005
10
-18.302579532511285
20
-31.382683432365095
10
-18.325630129495103
20
-31.32143946530317
10
-18.344625826289068
20
-31.258819045102523
10
-18.359485280403227
20
-31.19509032201613
10
-18.37014486137381
20
-31.130526192220056
10
-18.3765589232386
20
-31.065403129230145
10
-18.3787
20
-31.000000000000004
10
-18.3787
20
30.878700000000002
10
-18.215104585891115
20
30.881377062618174
10
-18.051684353849282
20
30.889405383806984
10
-17.888614298352195
20
30.902776366639017
10
-17.72606903889974
20
30.92147569313095
10
-17.564222633027054
20
30.945483339575606
10
-17.403248389919355
20
30.974773597983848
10
-17.243318684828132
20
31.009315103613332
10
-17.084604774487392
20
31.04907086855466
10
-16.927276613727685
20
31.093998321338958
10
-16.77150267348419
20
31.144049352524476
10
-16.617449760393832
20
31.199170366213373
10
-16.46528283817455
20
31.259302337443568
10
-16.315164850978025
20
31.324380875394123
10
-16.16725654890499
20
31.39433629233656
10
-16.02171631587001
20
31.469093678258226
10
-15.878699999999998
20
31.54857298107781
10
-15.738360746748159
20
31.63268909236711
10
-15.600848834901987
20
31.721351938487278
10
-15.466311515660987
20
31.814466577041927
10
-15.334892854956395
20
31.911933298543826
10
-15.20673357918177
20
32.01364773318632
10
-15.081970924499654
20
32.119500962605116
10
-14.960738489885642
20
32.22937963651083
10
-14.84316609406726
20
32.343166094067264
10
-14.72937963651082
20
32.46073848988565
10
-14.61950096260511
20
32.58197092449966
10
-14.513647733186314
20
32.70673357918177
10
-14.411933298543822
20
32.8348928549564
10
-14.314466577041923
20
32.96631151566099
10
-14.221351938487272
20
33.10084883490199
10
-14.132689092367103
20
33.238360746748164
10
-14.048572981077804
20
33.3787
10
-13.969093678258222
20
33.521716315870016
10
-13.894336292336558
20
33.667256548904994
10
-13.82438087539412
20
33.81516485097803
10
-13.759302337443565
20
33.96528283817455
10
-13.69917036621337
20
34.11744976039383
10
-13.644049352524469
20
34.27150267348419
10
-13.593998321338955
20
34.42727661372769
10
-13.549070868554658
20
34.584604774487396
10
-13.50931510361333
20
34.74331868482814
10
-13.474773597983846
20
34.90324838991936
10
-13.445483339575603
20
35.06422263302706
10
-13.421475693130947
20
35.226069038899745
10
-13.402776366639014
20
35.3886142983522
10
-13.38940538380698
20
35.55168435384929
10
-13.38137706261817
20
35.71510458589112
10
-13.378699999999998
20
35.87870000000001
10
13.378699999999998
20
35.87870000000001
10
13.38137706261817
20
35.71510458589112
10
13.38940538380698
20
35.55168435384928
10
13.402776366639014
20
35.388614298352195
10
13.421475693130947
20
35.226069038899745
10
13.445483339575603
20
35.06422263302706
10
13.474773597983846
20
34.90324838991936
10
13.509315103613332
20
34.74331868482813
10
13.549070868554658
20
34.584604774487396
10
13.593998321338955
20
34.427276613727685
10
13.64404935252447
20
34.27150267348419
10
13.699170366213371
20
34.11744976039383
10
13.759302337443565
20
33.96528283817455
10
13.82438087539412
20
33.81516485097803
10
13.894336292336558
20
33.667256548904994
10
13.969093678258224
20
33.521716315870016
10
14.048572981077806
20
33.3787
10
14.132689092367105
20
33.238360746748164
10
14.221351938487274
20
33.10084883490199
10
14.314466577041923
20
32.96631151566099
10
14.411933298543824
20
32.8348928549564
10
14.513647733186314
20
32.70673357918177
10
14.619500962605112
20
32.58197092449966
10
14.72937963651082
20
32.46073848988564
10
14.84316609406726
20
32.343166094067264
10
14.960738489885642
20
32.22937963651082
10
15.081970924499656
20
32.119500962605116
10
15.206733579181773
20
32.01364773318632
10
15.334892854956397
20
31.911933298543826
10
15.466311515660989
20
31.814466577041927
10
15.600848834901988
20
31.721351938487274
10
15.738360746748159
20
31.63268909236711
10
15.878699999999998
20
31.548572981077807
10
16.021716315870012
20
31.469093678258226
10
16.167256548904994
20
31.39433629233656
10
16.315164850978025
20
31.324380875394123
10
16.465282838174552
20
31.259302337443568
10
16.617449760393832
20
31.199170366213373
10
16.771502673484193
20
31.144049352524473
10
16.927276613727688
20
31.093998321338958
10
17.084604774487396
20
31.04907086855466
10
17.243318684828132
20
31.009315103613332
10
17.40324838991936
20
30.974773597983848
10
17.564222633027057
20
30.945483339575606
10
17.72606903889974
20
30.92147569313095
10
17.888614298352195
20
30.902776366639017
10
18.051684353849282
20
30.889405383806984
10
18.21510458589112
20
30.881377062618174
10
18.3787
20
30.878700000000002
10
18.3787
20
-31.000000000000004
10
18.3765589232386
20
-31.065403129230145
10
18.37014486137381
20
-31.130526192220056
10
18.359485280403227
20
-31.19509032201613
10
18.344625826289068
20
-31.258819045102523
10
18.325630129495103
20
-31.32143946530317
10
18.302579532511285
20
-31.382683432365095
10
18.275572741532688
20
-31.442288690219005
10
18.244725403784436
20
-31.500000000000004
10
18.210169612302543
20
-31.555570233019605
10
18.172053340291235
20
-31.608761429008727
10
18.130539807478975
20
-31.65934581510007
10
18.085806781186545
20
-31.70710678118655
10
18.038045815100066
20
-31.751839807478984
10
17.987461429008718
20
-31.793353340291237
10
17.9342702330196
20
-31.831469612302552
10
17.8787
20
-31.866025403784445
10
17.820988690219
20
-31.896872741532693
10
17.76138343236509
20
-31.92387953251129
10
17.70013946530316
20
-31.94693012949511
10
17.63751904510252
20
-31.96592582628907
10
17.573790322016126
20
-31.980785280403236
10
17.50922619222005
20
-31.99144486137381
10
17.444103129230143
20
-31.997858923238606
10
17.3787
20
-32.0
10
9.0
20
-32.0
10
9.0
20
-33.0
10
7.0
20
-35.0
10
7.0
20
-36.4
10
6.4
20
-37.0
10
-6.4
20
-37.0
10
-7.0
20
-36.4
10
-7.0
20
-35.0
10
-9.0
20
-33.0
10
-9.0
20
-32.0
10
-17.3787
20
-32.0
10
-17.444103129230143
20
-31.997858923238606
10
-17.50922619222005
20
-31.99144486137381
10
-17.573790322016126
20
-31.980785280403236
10
-17.63751904510252
20
-31.96592582628907
10
-17.70013946530316
20
-31.94693012949511
10
-17.76138343236509
20
-31.92387953251129
0
LWPOLYLINE
8
Edge.Cuts
90
96
70
1
10
1.0889696489193714
20
28.369655385098635
10
1.0624614623879793
20
28.440085947219853
10
1.031403652762591
20
28.50863199375185
10
0.995929214352104
20
28.575
10
0.9561900541479265
20
28.638905767972542
10
0.9123563413349202
20
28.70007564336003
10
0.8646157786008234
20
28.75824768736508
10
0.8131727983645294
20
28.81317279836453
10
0.7582476873650786
20
28.864615778600825
10
0.7000756433600278
20
28.91235634133492
10
0.6389057679725421
20
28.95619005414793
10
0.5749999999999992
20
28.995929214352106
10
0.5086319937518511
20
29.03140365276259
10
0.4400859472198525
20
29.06246146238798
10
0.36965538509863566
20
29.08896964891937
10
0.2976419018678983
20
29.110814700232428
10
0.2243538703185465
20
29.127903072463717
10
0.15010512105305895
20
29.140161590579883
10
0.07521359861466372
20
29.147537761724394
10
0.0
20
29.15
10
-0.07521359861466516
20
29.147537761724394
10
-0.15010512105306034
20
29.140161590579883
10
-0.22435387031854795
20
29.127903072463713
10
-0.29764190186789974
20
29.110814700232428
10
-0.36965538509863605
20
29.08896964891937
10
-0.44008594721985383
20
29.06246146238798
10
-0.5086319937518515
20
29.03140365276259
10
-0.5750000000000005
20
28.995929214352103
10
-0.6389057679725434
20
28.956190054147925
10
-0.7000756433600289
20
28.91235634133492
10
-0.7582476873650794
20
28.864615778600825
10
-0.81317279836453
20
28.81317279836453
10
-0.8646157786008243
20
28.758247687365078
10
-0.9123563413349206
20
28.70007564336003
10
-0.9561900541479272
20
28.638905767972542
10
-0.9959292143521046
20
28.575
10
-1.0314036527625916
20
28.50863199375185
10
-1.06246146238798
20
28.440085947219853
10
-1.0889696489193716
20
28.369655385098635
10
-1.1108147002324287
20
28.297641901867898
10
-1.1279030724637151
20
28.22435387031855
10
-1.140161590579882
20
28.15010512105306
10
-1.1475377617243938
20
28.075213598614663
10
-1.15
20
28.0
10
-1.1475377617243938
20
27.924786401385337
10
-1.1401615905798819
20
27.84989487894694
10
-1.127903072463715
20
27.77564612968145
10
-1.1108147002324285
20
27.702358098132102
10
-1.0889696489193714
20
27.630344614901365
10
-1.0624614623879796
20
27.559914052780147
10
-1.0314036527625914
20
27.49136800624815
10
-0.9959292143521041
20
27.425
10
-0.9561900541479267
20
27.361094232027458
10
-0.9123563413349203
20
27.29992435663997
10
-0.8646157786008238
20
27.241752312634922
10
-0.8131727983645295
20
27.18682720163547
10
-0.7582476873650787
20
27.135384221399175
10
-0.7000756433600284
20
27.08764365866508
10
-0.6389057679725422
20
27.04380994585207
10
-0.5749999999999997
20
27.004070785647894
10
-0.5086319937518513
20
26.96859634723741
10
-0.4400859472198529
20
26.93753853761202
10
-0.36965538509863555
20
26.91103035108063
10
-0.2976419018678987
20
26.889185299767572
10
-0.22435387031854714
20
26.872096927536283
10
-0.15010512105305907
20
26.859838409420117
10
-0.07521359861466435
20
26.852462238275606
10
0.0
20
26.85
10
0.07521359861466476
20
26.852462238275606
10
0.15010512105305945
20
26.859838409420117
10
0.22435387031854756
20
26.872096927536283
10
0.2976419018678991
20
26.889185299767572
10
0.36965538509863594
20
26.91103035108063
10
0.4400859472198533
20
26.93753853761202
10
0.5086319937518516
20
26.96859634723741
10
0.5750000000000001
20
27.004070785647897
10
0.6389057679725427
20
27.04380994585207
10
0.7000756433600287
20
27.08764365866508
10
0.7582476873650792
20
27.135384221399175
10
0.8131727983645296
20
27.18682720163547
10
0.8646157786008241
20
27.241752312634922
10
0.9123563413349205
20
27.29992435663997
10
0.9561900541479269
20
27.361094232027458
10
0.9959292143521045
20
27.425
10
1.0314036527625916
20
27.49136800624815
10
1.0624614623879796
20
27.559914052780147
10
1.0889696489193714
20
27.630344614901365
10
1.1108147002324285
20
27.702358098132102
10
1.127903072463715
20
27.77564612968145
10
1.1401615905798819
20
27.84989487894694
10
1.1475377617243938
20
27.924786401385337
10
1.15
20
28.0
10
1.1475377617243938
20
28.075213598614667
10
1.1401615905798816
20
28.15010512105306
10
1.1279030724637147
20
28.22435387031855
10
1.1108147002324282
20
28.297641901867898
0
LWPOLYLINE
8
Edge.Cuts
90
96
70
1
10
-12.889185299767572
20
-26.702358098132102
10
-12.911030351080628
20
-26.630344614901365
10
-12.93753853761202
20
-26.559914052780147
10
-12.968596347237408
20
-26.49136800624815
10
-13.004070785647896
20
-26.425
10
-13.043809945852074
20
-26.361094232027458
10
-13.08764365866508
20
-26.29992435663997
10
-13.135384221399176
20
-26.24175231263492
10
-13.18682720163547
20
-26.18682720163547
10
-13.24175231263492
20
-26.135384221399175
10
-13.299924356639972
20
-26.08764365866508
10
-13.361094232027458
20
-26.04380994585207
10
-13.425
20
-26.004070785647894
10
-13.491368006248148
20
-25.96859634723741
10
-13.559914052780147
20
-25.93753853761202
10
-13.630344614901365
20
-25.91103035108063
10
-13.702358098132102
20
-25.889185299767572
10
-13.775646129681453
20
-25.872096927536283
10
-13.849894878946941
20
-25.859838409420117
10
-13.924786401385337
20
-25.852462238275606
10
-14.0
20
-25.85
10
-14.075213598614665
20
-25.852462238275606
10
-14.15010512105306
20
-25.859838409420117
10
-14.224353870318549
20
-25.872096927536287
10
-14.2976419018679
20
-25.889185299767572
10
-14.369655385098635
20
-25.91103035108063
10
-14.440085947219854
20
-25.93753853761202
10
-14.508631993751852
20
-25.96859634723741
10
-14.575000000000001
20
-26.004070785647897
10
-14.638905767972544
20
-26.043809945852075
10
-14.700075643360028
20
-26.08764365866508
10
-14.75824768736508
20
-26.135384221399175
10
-14.81317279836453
20
-26.18682720163547
10
-14.864615778600824
20
-26.241752312634922
10
-14.91235634133492
20
-26.29992435663997
10
-14.956190054147926
20
-26.361094232027458
10
-14.995929214352104
20
-26.425
10
-15.031403652762592
20
-26.49136800624815
10
-15.06246146238798
20
-26.559914052780147
10
-15.088969648919372
20
-26.630344614901365
10
-15.110814700232428
20
-26.702358098132102
10
-15.127903072463715
20
-26.77564612968145
10
-15.140161590579883
20
-26.84989487894694
10
-15.147537761724394
20
-26.924786401385337
10
-15.15
20
-27.0
10
-15.147537761724394
20
-27.075213598614663
10
-15.140161590579883
20
-27.15010512105306
10
-15.127903072463715
20
-27.22435387031855
10
-15.110814700232428
20
-27.297641901867898
10
-15.088969648919372
20
-27.369655385098635
10
-15.06246146238798
20
-27.440085947219853
10
-15.031403652762592
20
-27.50863199375185
10
-14.995929214352104
20
-27.575
10
-14.956190054147926
20
-27.638905767972542
10
-14.91235634133492
20
-27.70007564336003
10
-14.864615778600824
20
-27.758247687365078
10
-14.81317279836453
20
-27.81317279836453
10
-14.75824768736508
20
-27.864615778600825
10
-14.700075643360028
20
-27.91235634133492
10
-14.638905767972542
20
-27.95619005414793
10
-14.575
20
-27.995929214352106
10
-14.508631993751852
20
-28.03140365276259
10
-14.440085947219853
20
-28.06246146238798
10
-14.369655385098635
20
-28.08896964891937
10
-14.297641901867898
20
-28.110814700232428
10
-14.224353870318547
20
-28.127903072463717
10
-14.150105121053059
20
-28.140161590579883
10
-14.075213598614665
20
-28.147537761724394
10
-14.0
20
-28.15
10
-13.924786401385335
20
-28.147537761724394
10
-13.849894878946941
20
-28.140161590579883
10
-13.775646129681453
20
-28.127903072463717
10
-13.702358098132102
20
-28.110814700232428
10
-13.630344614901365
20
-28.08896964891937
10
-13.559914052780147
20
-28.06246146238798
10
-13.491368006248148
20
-28.03140365276259
10
-13.425
20
-27.995929214352103
10
-13.361094232027458
20
-27.95619005414793
10
-13.299924356639972
20
-27.91235634133492
10
-13.24175231263492
20
-27.864615778600825
10
-13.18682720163547
20
-27.81317279836453
10
-13.135384221399176
20
-27.758247687365078
10
-13.08764365866508
20
-27.70007564336003
10
-13.043809945852074
20
-27.638905767972542
10
-13.004070785647896
20
-27.575
10
-12.968596347237408
20
-27.50863199375185
10
-12.93753853761202
20
-27.440085947219853
10
-12.911030351080628
20
-27.369655385098635
10
-12.889185299767572
20
-27.297641901867898
10
-12.872096927536285
20
-27.22435387031855
10
-12.859838409420117
20
-27.15010512105306
10
-12.852462238275606
20
-27.075213598614663
10
-12.85
20
-27.0
10
-12.852462238275606
20
-26.924786401385333
10
-12.859838409420119
20
-26.84989487894694
10
-12.872096927536285
20
-26.77564612968145
0
LWPOLYLINE
8
Edge.Cuts
90
96
70
1
10
15.127903072463715
20
-26.77564612968145
10
15.110814700232428
20
-26.702358098132102
10
15.088969648919372
20
-26.630344614901365
10
15.06246146238798
20
-26.559914052780147
10
15.031403652762592
20
-26.49136800624815
10
14.995929214352104
20
-26.425
10
14.956190054147926
20
-26.361094232027458
10
14.91235634133492
20
-26.29992435663997
10
14.864615778600824
20
-26.24175231263492
10
14.81317279836453
20
-26.18682720163547
10
14.75824768736508
20
-26.135384221399175
10
14.700075643360028
20
-26.08764365866508
10
14.638905767972542
20
-26.04380994585207
10
14.575
20
-26.004070785647894
10
14.508631993751852
20
-25.96859634723741
10
14.440085947219853
20
-25.93753853761202
10
14.369655385098635
20
-25.91103035108063
10
14.297641901867898
20
-25.889185299767572
10
14.224353870318547
20
-25.872096927536283
10
14.150105121053059
20
-25.859838409420117
10
14.075213598614663
20
-25.852462238275606
10
14.0
20
-25.85
10
13.924786401385335
20
-25.852462238275606
10
13.84989487894694
20
-25.859838409420117
10
13.775646129681451
20
-25.872096927536287
10
13.7023580981321
20
-25.889185299767572
10
13.630344614901365
20
-25.91103035108063
10
13.559914052780146
20
-25.93753853761202
10
13.491368006248148
20
-25.96859634723741
10
13.424999999999999
20
-26.004070785647897
10
13.361094232027456
20
-26.043809945852075
10
13.299924356639972
20
-26.08764365866508
10
13.24175231263492
20
-26.135384221399175
10
13.18682720163547
20
-26.18682720163547
10
13.135384221399176
20
-26.241752312634922
10
13.08764365866508
20
-26.29992435663997
10
13.043809945852074
20
-26.361094232027458
10
13.004070785647896
20
-26.425
10
12.968596347237408
20
-26.49136800624815
10
12.93753853761202
20
-26.559914052780147
10
12.911030351080628
20
-26.630344614901365
10
12.889185299767572
20
-26.702358098132102
10
12.872096927536285
20
-26.77564612968145
10
12.859838409420117
20
-26.84989487894694
10
12.852462238275606
20
-26.924786401385337
10
12.85
20
-27.0
10
12.852462238275606
20
-27.075213598614663
10
12.859838409420117
20
-27.15010512105306
10
12.872096927536285
20
-27.22435387031855
10
12.889185299767572
20
-27.297641901867898
10
12.911030351080628
20
-27.369655385098635
10
12.93753853761202
20
-27.440085947219853
10
12.968596347237408
20
-27.50863199375185
10
13.004070785647896
20
-27.575
10
13.043809945852074
20
-27.638905767972542
10
13.08764365866508
20
-27.70007564336003
10
13.135384221399176
20
-27.758247687365078
10
13.18682720163547
20
-27.81317279836453
10
13.24175231263492
20
-27.864615778600825
10
13.299924356639972
20
-27.91235634133492
10
13.361094232027458
20
-27.95619005414793
10
13.425
20
-27.995929214352106
10
13.491368006248148
20
-28.03140365276259
10
13.559914052780147
20
-28.06246146238798
10
13.630344614901365
20
-28.08896964891937
10
13.702358098132102
20
-28.110814700232428
10
13.775646129681453
20
-28.127903072463717
10
13.849894878946941
20
-28.140161590579883
10
13.924786401385335
20
-28.147537761724394
10
14.0
20
-28.15
10
14.075213598614665
20
-28.147537761724394
10
14.150105121053059
20
-28.140161590579883
10
14.224353870318547
20
-28.127903072463717
10
14.297641901867898
20
-28.110814700232428
10
14.369655385098635
20
-28.08896964891937
10
14.440085947219853
20
-28.06246146238798
10
14.508631993751852
20
-28.03140365276259
10
14.575
20
-27.995929214352103
10
14.638905767972542
20
-27.95619005414793
10
14.700075643360028
20
-27.91235634133492
10
14.75824768736508
20
-27.864615778600825
10
14.81317279836453
20
-27.81317279836453
10
14.864615778600824
20
-27.758247687365078
10
14.91235634133492
20
-27.70007564336003
10
14.956190054147926
20
-27.638905767972542
10
14.995929214352104
20
-27.575
10
15.031403652762592
20
-27.50863199375185
10
15.06246146238798
20
-27.440085947219853
10
15.088969648919372
20
-27.369655385098635
10
15.110814700232428
20
-27.297641901867898
10
15.127903072463715
20
-27.22435387031855
10
15.140161590579883
20
-27.15010512105306
10
15.147537761724394
20
-27.075213598614663
10
15.15
20
-27.0
10
15.147537761724394
20
-26.924786401385333
10
15.140161590579881
20
-26.84989487894694
0
LWPOLYLINE
8
Edge.Cuts
90
96
70
1
10
-0.4547053262444043
20
7.321789405721029
10
-0.46056809577822333
20
7.357299677108871
10
-0.46874079554101256
20
7.392350474806387
10
-0.47918842877769185
20
7.426791705916739
10
-0.4918662571187924
20
7.4604758878008
10
-0.5067199921570217
20
7.493258779620451
10
-0.5236860279185589
20
7.525
10
-0.5426917132336003
20
7.555563628160781
10
-0.5636556628398208
20
7.584818785954797
10
-0.5864881058865626
20
7.612640198305038
10
-0.611091270347399
20
7.638908729652601
10
-0.6373598016949624
20
7.663511894113438
10
-0.665181214045204
20
7.68634433716018
10
-0.694436371839219
20
7.7073082867664
10
-0.7250000000000003
20
7.726313972081441
10
-0.7567412203795494
20
7.743280007842979
10
-0.7895241121992009
20
7.758133742881208
10
-0.8232082940832612
20
7.770811571222308
10
-0.8576495251936138
20
7.781259204458988
10
-0.8927003228911299
20
7.789431904221777
10
-0.9282105942789718
20
7.7952946737555955
10
-0.9640282789234217
20
7.798822407781232
10
-1.0
20
7.8
10
-1.035971721076579
20
7.798822407781232
10
-1.0717894057210289
20
7.7952946737555955
10
-1.1072996771088708
20
7.789431904221777
10
-1.1423504748063869
20
7.781259204458987
10
-1.176791705916739
20
7.770811571222308
10
-1.2104758878007997
20
7.758133742881208
10
-1.2432587796204508
20
7.743280007842978
10
-1.2750000000000004
20
7.726313972081441
10
-1.3055636281607816
20
7.707308286766399
10
-1.3348187859547966
20
7.686344337160179
10
-1.362640198305038
20
7.663511894113437
10
-1.3889087296526013
20
7.638908729652601
10
-1.4135118941134377
20
7.612640198305038
10
-1.4363443371601794
20
7.584818785954797
10
-1.4573082867664
20
7.555563628160781
10
-1.4763139720814413
20
7.525
10
-1.4932800078429787
20
7.493258779620451
10
-1.5081337428812078
20
7.460475887800799
10
-1.5208115712223083
20
7.426791705916739
10
-1.5312592044589877
20
7.392350474806387
10
-1.539431904221777
20
7.357299677108871
10
-1.545294673755596
20
7.321789405721028
10
-1.5488224077812318
20
7.285971721076579
10
-1.55
20
7.25
10
-1.5488224077812318
20
7.214028278923421
10
-1.5452946737555957
20
7.178210594278972
10
-1.5394319042217768
20
7.142700322891129
10
-1.5312592044589874
20
7.107649525193613
10
-1.5208115712223083
20
7.073208294083261
10
-1.5081337428812076
20
7.0395241121992
10
-1.4932800078429787
20
7.006741220379549
10
-1.4763139720814413
20
6.975
10
-1.4573082867663998
20
6.944436371839219
10
-1.4363443371601794
20
6.915181214045203
10
-1.4135118941134375
20
6.887359801694962
10
-1.3889087296526013
20
6.861091270347399
10
-1.3626401983050376
20
6.836488105886562
10
-1.3348187859547962
20
6.81365566283982
10
-1.305563628160781
20
6.7926917132336
10
-1.275
20
6.773686027918559
10
-1.2432587796204506
20
6.756719992157022
10
-1.2104758878007993
20
6.741866257118792
10
-1.1767917059167388
20
6.729188428777692
10
-1.1423504748063864
20
6.718740795541012
10
-1.1072996771088703
20
6.710568095778223
10
-1.0717894057210282
20
6.7047053262444045
10
-1.0359717210765786
20
6.701177592218768
10
-1.0
20
6.7
10
-0.9640282789234212
20
6.701177592218768
10
-0.9282105942789716
20
6.7047053262444045
10
-0.8927003228911294
20
6.710568095778223
10
-0.8576495251936135
20
6.718740795541012
10
-0.823208294083261
20
6.729188428777692
10
-0.7895241121992006
20
6.741866257118792
10
-0.7567412203795492
20
6.756719992157022
10
-0.7249999999999999
20
6.773686027918559
10
-0.6944363718392186
20
6.7926917132336
10
-0.6651812140452036
20
6.813655662839821
10
-0.637359801694962
20
6.836488105886563
10
-0.6110912703473987
20
6.861091270347399
10
-0.5864881058865623
20
6.887359801694962
10
-0.5636556628398206
20
6.915181214045203
10
-0.5426917132336001
20
6.944436371839219
10
-0.5236860279185587
20
6.975
10
-0.5067199921570213
20
7.006741220379549
10
-0.4918662571187923
20
7.0395241121992
10
-0.47918842877769185
20
7.073208294083261
10
-0.46874079554101233
20
7.107649525193613
10
-0.4605680957782232
20
7.142700322891129
10
-0.4547053262444043
20
7.178210594278972
10
-0.4511775922187681
20
7.214028278923421
10
-0.44999999999999996
20
7.25
10
-0.4511775922187681
20
7.285971721076579
0
LWPOLYLINE
8
Edge.Cuts
90
96
70
1
10
-0.4511775922187681
20
10.78597172107658
10
-0.4547053262444043
20
10.821789405721029
10
-0.46056809577822333
20
10.857299677108871
10
-0.46874079554101256
20
10.892350474806387
10
-0.47918842877769185
20
10.92679170591674
10
-0.4918662571187924
20
10.9604758878008
10
-0.5067199921570217
20
10.99325877962045
10
-0.5236860279185589
20
11.025
10
-0.5426917132336003
20
11.055563628160781
10
-0.5636556628398208
20
11.084818785954797
10
-0.5864881058865626
20
11.112640198305039
10
-0.611091270347399
20
11.138908729652602
10
-0.6373598016949624
20
11.163511894113437
10
-0.665181214045204
20
11.186344337160179
10
-0.694436371839219
20
11.2073082867664
10
-0.7250000000000003
20
11.226313972081442
10
-0.7567412203795494
20
11.243280007842978
10
-0.7895241121992009
20
11.258133742881208
10
-0.8232082940832612
20
11.270811571222309
10
-0.8576495251936138
20
11.281259204458987
10
-0.8927003228911299
20
11.289431904221777
10
-0.9282105942789718
20
11.295294673755595
10
-0.9640282789234217
20
11.298822407781232
10
-1.0
20
11.3
10
-1.035971721076579
20
11.298822407781232
10
-1.0717894057210289
20
11.295294673755595
10
-1.1072996771088708
20
11.289431904221777
10
-1.1423504748063869
20
11.281259204458987
10
-1.176791705916739
20
11.270811571222309
10
-1.2104758878007997
20
11.258133742881208
10
-1.2432587796204508
20
11.243280007842978
10
-1.2750000000000004
20
11.22631397208144
10
-1.3055636281607816
20
11.2073082867664
10
-1.3348187859547966
20
11.186344337160179
10
-1.362640198305038
20
11.163511894113437
10
-1.3889087296526013
20
11.1389087296526
10
-1.4135118941134377
20
11.112640198305037
10
-1.4363443371601794
20
11.084818785954797
10
-1.4573082867664
20
11.055563628160781
10
-1.4763139720814413
20
11.025
10
-1.4932800078429787
20
10.99325877962045
10
-1.5081337428812078
20
10.960475887800799
10
-1.5208115712223083
20
10.926791705916738
10
-1.5312592044589877
20
10.892350474806387
10
-1.539431904221777
20
10.85729967710887
10
-1.545294673755596
20
10.821789405721029
10
-1.5488224077812318
20
10.785971721076578
10
-1.55
20
10.75
10
-1.5488224077812318
20
10.71402827892342
10
-1.5452946737555957
20
10.678210594278971
10
-1.5394319042217768
20
10.642700322891129
10
-1.5312592044589874
20
10.607649525193613
10
-1.5208115712223083
20
10.573208294083262
10
-1.5081337428812076
20
10.539524112199201
10
-1.4932800078429787
20
10.50674122037955
10
-1.4763139720814413
20
10.475
10
-1.4573082867663998
20
10.444436371839219
10
-1.4363443371601794
20
10.415181214045203
10
-1.4135118941134375
20
10.387359801694963
10
-1.3889087296526013
20
10.3610912703474
10
-1.3626401983050376
20
10.336488105886563
10
-1.3348187859547962
20
10.313655662839821
10
-1.305563628160781
20
10.2926917132336
10
-1.275
20
10.273686027918558
10
-1.2432587796204506
20
10.256719992157022
10
-1.2104758878007993
20
10.241866257118792
10
-1.1767917059167388
20
10.229188428777691
10
-1.1423504748063864
20
10.218740795541013
10
-1.1072996771088703
20
10.210568095778223
10
-1.0717894057210282
20
10.204705326244405
10
-1.0359717210765786
20
10.201177592218768
10
-1.0
20
10.2
10
-0.9640282789234212
20
10.201177592218768
10
-0.9282105942789716
20
10.204705326244405
10
-0.8927003228911294
20
10.210568095778223
10
-0.8576495251936135
20
10.218740795541013
10
-0.823208294083261
20
10.229188428777691
10
-0.7895241121992006
20
10.241866257118792
10
-0.7567412203795492
20
10.256719992157022
10
-0.7249999999999999
20
10.27368602791856
10
-0.6944363718392186
20
10.2926917132336
10
-0.6651812140452036
20
10.313655662839821
10
-0.637359801694962
20
10.336488105886563
10
-0.6110912703473987
20
10.3610912703474
10
-0.5864881058865623
20
10.387359801694963
10
-0.5636556628398206
20
10.415181214045203
10
-0.5426917132336001
20
10.444436371839219
10
-0.5236860279185587
20
10.475
10
-0.5067199921570213
20
10.50674122037955
10
-0.4918662571187923
20
10.539524112199201
10
-0.47918842877769185
20
10.573208294083262
10
-0.46874079554101233
20
10.607649525193613
10
-0.4605680957782232
20
10.64270032289113
10
-0.4547053262444043
20
10.678210594278971
10
-0.4511775922187681
20
10.714028278923422
10
-0.44999999999999996
20
10.75
0
ENDSEC
0
EOF
