M48
;GenerationSoftware,Autodesk,EAGLE,9.7.0*%
;CreationDate,2025-05-02T06:13:40Z*%
FMAT,2
ICI,OFF
METRIC,TZ,000.000
T4C0.350
T3C0.830
T2C0.850
T1C1.016
%
G90
M71
T1
X3251Y21181
X4116Y-49309
X8638Y-55811
X8638Y-49309
X-8584Y-55811
X-8584Y-49309
X-4062Y-55811
X-4062Y-49309
X-2261Y5979
X-2261Y12481
X2261Y5979
X2261Y12481
X4116Y-44381
X4116Y-37879
X-3251Y39293
X8638Y-44381
X8638Y-37879
X-8584Y-44381
X-4062Y-44381
X-4062Y-37879
X4116Y-32951
X4116Y-26449
X8638Y-32951
X8638Y-26449
X-8584Y-32951
X-8584Y-26449
X-4062Y-32951
X-3251Y21181
X-4062Y-26449
X-3251Y16659
X3251Y16659
X-12941Y21181
X-6439Y21181
X-12941Y16659
X-6439Y16659
X6439Y21181
X12941Y21181
X6439Y16659
X12941Y16659
X-2261Y25359
X-2261Y31861
X2261Y25359
X2261Y31861
X8179Y43815
X14681Y43815
X8179Y39293
X14681Y39293
X8179Y-15445
X14681Y-15445
X8179Y-19967
X14681Y-19967
X-3251Y-15445
X3251Y-15445
X-3251Y-19967
X3251Y-19967
X-3251Y43815
X3251Y43815
X-8584Y-37879
X3251Y39293
X-14681Y63221
X-8179Y63221
X-14681Y58699
X-8179Y58699
X-14681Y43815
X-8179Y43815
X-14681Y39293
X-8179Y39293
X-14681Y-15445
X-8179Y-15445
X-14681Y-19967
X-8179Y-19967
X-3251Y-1015
X3251Y-1015
X-3251Y-5537
X3251Y-5537
X-14681Y-1015
X-8179Y-1015
X-14681Y-5537
X-8179Y-5537
X8179Y-1015
X14681Y-1015
X8179Y-5537
X14681Y-5537
X4116Y-55811
T2
X11430Y-54810
X11430Y-52270
X11430Y-49730
X11430Y-47190
X11430Y-44650
X11430Y-42110
X11430Y-39570
X11430Y-37030
X11430Y-34490
X11430Y-31950
X11430Y-29410
X11430Y-26870
X11430Y-24330
X-11430Y-47190
X-11430Y-44650
X-11430Y-42110
X-11430Y-39570
X-11430Y-37030
X-11430Y-34490
X-11430Y-31950
X-11430Y-29410
X-11430Y-26870
X-11430Y-24330
X-11430Y-54810
X-11430Y-52270
X-11430Y-49730
T3
X-15000Y-43313
X-15000Y-33153
X14829Y-43313
X14829Y-33153
T4
X-1956Y-24867
M30