G04 EAGLE Gerber RS-274X export*
G75*
%MOMM*%
%FSLAX34Y34*%
%LPD*%
%INBottom Copper*%
%IPPOS*%
%AMOC8*
5,1,8,0,0,1.08239X$1,22.5*%
G01*
G04 Define Apertures*
%ADD10C,1.778000*%
%ADD11C,1.879600*%
%ADD12C,1.430000*%
%ADD13C,0.406400*%
%ADD14C,0.756400*%
D10*
X114300Y-548100D03*
X114300Y-522700D03*
X114300Y-497300D03*
X114300Y-471900D03*
X114300Y-446500D03*
X114300Y-421100D03*
X114300Y-395700D03*
X114300Y-370300D03*
X114300Y-344900D03*
X114300Y-319500D03*
X114300Y-294100D03*
X114300Y-268700D03*
X114300Y-243300D03*
X-114300Y-497300D03*
X-114300Y-471900D03*
X-114300Y-446500D03*
X-114300Y-421100D03*
X-114300Y-395700D03*
X-114300Y-370300D03*
X-114300Y-344900D03*
X-114300Y-319500D03*
X-114300Y-294100D03*
X-114300Y-268700D03*
X-114300Y-243300D03*
X-114300Y-548100D03*
X-114300Y-522700D03*
D11*
X-32512Y211806D03*
X32512Y211806D03*
X-32512Y166594D03*
X32512Y166594D03*
X-129412Y211806D03*
X-64388Y211806D03*
X-129412Y166594D03*
X-64388Y166594D03*
X64388Y211806D03*
X129412Y211806D03*
X64388Y166594D03*
X129412Y166594D03*
X-22606Y253588D03*
X-22606Y318612D03*
X22606Y253588D03*
X22606Y318612D03*
X81788Y438146D03*
X146812Y438146D03*
X81788Y392934D03*
X146812Y392934D03*
X81788Y-154454D03*
X146812Y-154454D03*
X81788Y-199666D03*
X146812Y-199666D03*
X-32512Y-154454D03*
X32512Y-154454D03*
X-32512Y-199666D03*
X32512Y-199666D03*
X-32512Y438146D03*
X32512Y438146D03*
X-32512Y392934D03*
X32512Y392934D03*
X-146812Y632206D03*
X-81788Y632206D03*
X-146812Y586994D03*
X-81788Y586994D03*
X-146812Y438146D03*
X-81788Y438146D03*
X-146812Y392934D03*
X-81788Y392934D03*
X-146812Y-154454D03*
X-81788Y-154454D03*
X-146812Y-199666D03*
X-81788Y-199666D03*
X-32512Y-10154D03*
X32512Y-10154D03*
X-32512Y-55366D03*
X32512Y-55366D03*
X-146812Y-10154D03*
X-81788Y-10154D03*
X-146812Y-55366D03*
X-81788Y-55366D03*
X81788Y-10154D03*
X146812Y-10154D03*
X81788Y-55366D03*
X146812Y-55366D03*
X41164Y-558112D03*
X41164Y-493088D03*
X86376Y-558112D03*
X86376Y-493088D03*
X-85836Y-558112D03*
X-85836Y-493088D03*
X-40624Y-558112D03*
X-40624Y-493088D03*
X-22606Y59788D03*
X-22606Y124812D03*
X22606Y59788D03*
X22606Y124812D03*
X41164Y-443812D03*
X41164Y-378788D03*
X86376Y-443812D03*
X86376Y-378788D03*
X-85836Y-443812D03*
X-85836Y-378788D03*
X-40624Y-443812D03*
X-40624Y-378788D03*
X41164Y-329512D03*
X41164Y-264488D03*
X86376Y-329512D03*
X86376Y-264488D03*
X-85836Y-329512D03*
X-85836Y-264488D03*
X-40624Y-329512D03*
X-40624Y-264488D03*
D12*
X-150000Y-433132D03*
X-150000Y-331532D03*
X148285Y-433132D03*
X148285Y-331532D03*
D13*
X114554Y-293370D02*
X114554Y-287782D01*
X128524Y-273812D01*
X128524Y-217932D01*
X94996Y-184404D01*
X94996Y16764D01*
X0Y111760D01*
X-75438Y111760D01*
X-128524Y164846D01*
X114554Y-293370D02*
X114300Y-294100D01*
X-128524Y164846D02*
X-129412Y166594D01*
X114554Y-312928D02*
X114554Y-318516D01*
X114554Y-312928D02*
X134112Y-293370D01*
X134112Y-215138D01*
X100584Y-181610D01*
X100584Y131318D01*
X67056Y164846D01*
X114554Y-318516D02*
X114300Y-319500D01*
X67056Y164846D02*
X64388Y166594D01*
X114554Y-338074D02*
X114554Y-343662D01*
X114554Y-338074D02*
X139700Y-312928D01*
X139700Y-212344D01*
X106172Y-178816D01*
X106172Y150876D01*
X47498Y209550D01*
X47498Y229108D01*
X25146Y251460D01*
X114554Y-343662D02*
X114300Y-344900D01*
X25146Y251460D02*
X22606Y253588D01*
X162052Y-447040D02*
X114554Y-494538D01*
X162052Y-447040D02*
X162052Y114554D01*
X78232Y198374D01*
X78232Y217932D01*
X-8382Y304546D01*
X-58674Y304546D01*
X-145288Y391160D01*
X114554Y-494538D02*
X114300Y-497300D01*
X-145288Y391160D02*
X-146812Y392934D01*
X-167640Y-441452D02*
X-114554Y-494538D01*
X-167640Y-441452D02*
X-167640Y-11176D01*
X-81026Y75438D01*
X27940Y75438D01*
X67056Y36322D01*
X67056Y-39116D01*
X81026Y-53086D01*
X-114554Y-494538D02*
X-114300Y-497300D01*
X81788Y-55366D02*
X81026Y-53086D01*
X0Y-472186D02*
X-111760Y-472186D01*
X0Y-472186D02*
X83820Y-556006D01*
X-111760Y-472186D02*
X-114300Y-471900D01*
X83820Y-556006D02*
X86376Y-558112D01*
X-114554Y-419100D02*
X-114554Y-413512D01*
X-162052Y-366014D01*
X-162052Y-189992D01*
X-47498Y-75438D01*
X-47498Y-44704D01*
X22352Y25146D01*
X22352Y58674D01*
X-114554Y-419100D02*
X-114300Y-421100D01*
X22352Y58674D02*
X22606Y59788D01*
X39116Y-396748D02*
X-111760Y-396748D01*
X39116Y-396748D02*
X83820Y-441452D01*
X-111760Y-396748D02*
X-114300Y-395700D01*
X83820Y-441452D02*
X86376Y-443812D01*
X-100584Y435864D02*
X-103378Y435864D01*
X-145288Y435864D01*
X-100584Y435864D02*
X-89408Y424688D01*
X-44704Y424688D01*
X-33528Y435864D01*
X-145288Y435864D02*
X-146812Y438146D01*
X-33528Y435864D02*
X-32512Y438146D01*
X-145288Y606298D02*
X-145288Y631444D01*
X-145288Y606298D02*
X-81026Y542036D01*
X-81026Y458216D01*
X-103378Y435864D01*
X-145288Y631444D02*
X-146812Y632206D01*
X-83820Y-441452D02*
X-58674Y-441452D01*
X-47498Y-430276D01*
X27940Y-430276D01*
X39116Y-441452D01*
X-83820Y-441452D02*
X-85836Y-443812D01*
X39116Y-441452D02*
X41164Y-443812D01*
X39116Y-556006D02*
X-22352Y-556006D01*
X-33528Y-544830D01*
X-72644Y-544830D01*
X-83820Y-556006D01*
X39116Y-556006D02*
X41164Y-558112D01*
X-83820Y-556006D02*
X-85836Y-558112D01*
X-81026Y209550D02*
X-128524Y209550D01*
X-81026Y209550D02*
X-69850Y198374D01*
X-44704Y198374D01*
X-33528Y209550D01*
X-128524Y209550D02*
X-129412Y211806D01*
X-33528Y209550D02*
X-32512Y211806D01*
X-58674Y-326898D02*
X-83820Y-326898D01*
X-58674Y-326898D02*
X-47498Y-315722D01*
X27940Y-315722D01*
X39116Y-326898D01*
X-83820Y-326898D02*
X-85836Y-329512D01*
X39116Y-326898D02*
X41164Y-329512D01*
X-100584Y-8382D02*
X-145288Y-8382D01*
X-100584Y-8382D02*
X-86614Y5588D01*
X-47498Y5588D01*
X-33528Y-8382D01*
X-145288Y-8382D02*
X-146812Y-10154D01*
X-33528Y-8382D02*
X-32512Y-10154D01*
X148082Y-385572D02*
X148082Y-433070D01*
X148082Y-385572D02*
X120142Y-357632D01*
X108966Y-357632D01*
X86614Y-335280D01*
X86614Y-329692D01*
X148082Y-433070D02*
X148285Y-433132D01*
X86614Y-329692D02*
X86376Y-329512D01*
X81026Y-343662D02*
X-111760Y-343662D01*
X81026Y-343662D02*
X86614Y-338074D01*
X-111760Y-343662D02*
X-114300Y-344900D01*
X86614Y-338074D02*
X86376Y-329512D01*
X-148082Y-329692D02*
X-148082Y-257048D01*
X-120142Y-229108D01*
X-50292Y-229108D01*
X-22352Y-257048D01*
X27940Y-257048D01*
X39116Y-245872D01*
X111760Y-245872D01*
X-148082Y-329692D02*
X-150000Y-331532D01*
X111760Y-245872D02*
X114300Y-243300D01*
X-19558Y-248666D02*
X-19558Y-67056D01*
X-30734Y-55880D01*
X-32512Y-55366D01*
D14*
X-19558Y-248666D03*
M02*
