G04 EAGLE Gerber RS-274X export*
G75*
%MOMM*%
%FSLAX34Y34*%
%LPD*%
%IN*%
%IPPOS*%
%AMOC8*
5,1,8,0,0,1.08239X$1,22.5*%
G01*
G04 Define Apertures*
%ADD10C,0.254000*%
D10*
X-183787Y-570000D02*
X-183749Y-570872D01*
X-183635Y-571736D01*
X-183446Y-572588D01*
X-183184Y-573420D01*
X-182850Y-574226D01*
X-182447Y-575000D01*
X-181978Y-575736D01*
X-181447Y-576428D01*
X-180858Y-577071D01*
X-180215Y-577660D01*
X-179523Y-578192D01*
X-178787Y-578660D01*
X-178013Y-579063D01*
X-177207Y-579397D01*
X-176375Y-579659D01*
X-175523Y-579848D01*
X-174658Y-579962D01*
X-173787Y-580000D01*
X173787Y-580000D01*
X174658Y-579962D01*
X175523Y-579848D01*
X176375Y-579659D01*
X177207Y-579397D01*
X178013Y-579063D01*
X178787Y-578660D01*
X179523Y-578192D01*
X180215Y-577660D01*
X180858Y-577071D01*
X181447Y-576428D01*
X181978Y-575736D01*
X182447Y-575000D01*
X182850Y-574226D01*
X183184Y-573420D01*
X183446Y-572588D01*
X183635Y-571736D01*
X183749Y-570872D01*
X183787Y-570000D01*
X183787Y450000D01*
X183749Y450872D01*
X183635Y451736D01*
X183446Y452588D01*
X183184Y453420D01*
X182850Y454226D01*
X182447Y455000D01*
X181978Y455736D01*
X181447Y456428D01*
X180858Y457071D01*
X180215Y457660D01*
X179523Y458192D01*
X178787Y458660D01*
X178013Y459063D01*
X177207Y459397D01*
X176375Y459659D01*
X175523Y459848D01*
X174658Y459962D01*
X173787Y460000D01*
X145000Y460000D01*
X140642Y460190D01*
X136318Y460760D01*
X132059Y461704D01*
X127899Y463015D01*
X123869Y464685D01*
X120000Y466699D01*
X116321Y469042D01*
X112861Y471698D01*
X109645Y474645D01*
X106698Y477861D01*
X104042Y481321D01*
X101699Y485000D01*
X99685Y488869D01*
X98015Y492899D01*
X96704Y497059D01*
X95760Y501318D01*
X95190Y505642D01*
X95000Y510000D01*
X95190Y514358D01*
X95760Y518682D01*
X96704Y522941D01*
X98015Y527101D01*
X99685Y531131D01*
X101699Y535000D01*
X104042Y538679D01*
X106698Y542139D01*
X109645Y545355D01*
X112861Y548302D01*
X116321Y550958D01*
X120000Y553301D01*
X123869Y555315D01*
X127899Y556985D01*
X132059Y558296D01*
X136318Y559240D01*
X140642Y559810D01*
X145000Y560000D01*
X173787Y560000D01*
X174658Y560038D01*
X175523Y560152D01*
X176375Y560341D01*
X177207Y560603D01*
X178013Y560937D01*
X178787Y561340D01*
X179523Y561808D01*
X180215Y562340D01*
X180858Y562929D01*
X181447Y563572D01*
X181978Y564264D01*
X182447Y565000D01*
X182850Y565774D01*
X183184Y566580D01*
X183446Y567412D01*
X183635Y568264D01*
X183749Y569128D01*
X183787Y570000D01*
X183787Y650000D01*
X183715Y651637D01*
X183501Y653262D01*
X183147Y654862D01*
X182654Y656425D01*
X182027Y657940D01*
X181270Y659393D01*
X180389Y660776D01*
X179392Y662076D01*
X178284Y663284D01*
X177076Y664392D01*
X175776Y665389D01*
X174393Y666270D01*
X172940Y667027D01*
X171425Y667654D01*
X169862Y668147D01*
X168262Y668501D01*
X166637Y668715D01*
X165000Y668787D01*
X-165000Y668787D01*
X-166637Y668715D01*
X-168262Y668501D01*
X-169862Y668147D01*
X-171425Y667654D01*
X-172940Y667027D01*
X-174393Y666270D01*
X-175776Y665389D01*
X-177076Y664392D01*
X-178284Y663284D01*
X-179392Y662076D01*
X-180389Y660776D01*
X-181270Y659393D01*
X-182027Y657940D01*
X-182654Y656425D01*
X-183147Y654862D01*
X-183501Y653262D01*
X-183715Y651637D01*
X-183787Y650000D01*
X-183787Y570000D01*
X-183749Y569128D01*
X-183635Y568264D01*
X-183446Y567412D01*
X-183184Y566580D01*
X-182850Y565774D01*
X-182447Y565000D01*
X-181978Y564264D01*
X-181447Y563572D01*
X-180858Y562929D01*
X-180215Y562340D01*
X-179523Y561808D01*
X-178787Y561340D01*
X-178013Y560937D01*
X-177207Y560603D01*
X-176375Y560341D01*
X-175523Y560152D01*
X-174658Y560038D01*
X-173787Y560000D01*
X-145000Y560000D01*
X-140642Y559810D01*
X-136318Y559240D01*
X-132059Y558296D01*
X-127899Y556985D01*
X-123869Y555315D01*
X-120000Y553301D01*
X-116321Y550958D01*
X-112861Y548302D01*
X-109645Y545355D01*
X-106698Y542139D01*
X-104042Y538679D01*
X-101699Y535000D01*
X-99685Y531131D01*
X-98015Y527101D01*
X-96704Y522941D01*
X-95760Y518682D01*
X-95190Y514358D01*
X-95000Y510000D01*
X-95190Y505642D01*
X-95760Y501318D01*
X-96704Y497059D01*
X-98015Y492899D01*
X-99685Y488869D01*
X-101699Y485000D01*
X-104042Y481321D01*
X-106698Y477861D01*
X-109645Y474645D01*
X-112861Y471698D01*
X-116321Y469042D01*
X-120000Y466699D01*
X-123869Y464685D01*
X-127899Y463015D01*
X-132059Y461704D01*
X-136318Y460760D01*
X-140642Y460190D01*
X-145000Y460000D01*
X-173787Y460000D01*
X-174658Y459962D01*
X-175523Y459848D01*
X-176375Y459659D01*
X-177207Y459397D01*
X-178013Y459063D01*
X-178787Y458660D01*
X-179523Y458192D01*
X-180215Y457660D01*
X-180858Y457071D01*
X-181447Y456428D01*
X-181978Y455736D01*
X-182447Y455000D01*
X-182850Y454226D01*
X-183184Y453420D01*
X-183446Y452588D01*
X-183635Y451736D01*
X-183749Y450872D01*
X-183787Y450000D01*
X-183787Y-570000D01*
X-142787Y-549219D02*
X-142787Y-548355D01*
X-142855Y-547493D01*
X-142990Y-546639D01*
X-143192Y-545799D01*
X-143459Y-544977D01*
X-143790Y-544178D01*
X-144182Y-543408D01*
X-144634Y-542671D01*
X-145142Y-541972D01*
X-145703Y-541314D01*
X-146314Y-540703D01*
X-146972Y-540142D01*
X-147671Y-539634D01*
X-148408Y-539182D01*
X-149178Y-538790D01*
X-149977Y-538459D01*
X-150799Y-538192D01*
X-151639Y-537990D01*
X-152493Y-537855D01*
X-153355Y-537787D01*
X-154219Y-537787D01*
X-155081Y-537855D01*
X-155934Y-537990D01*
X-156775Y-538192D01*
X-157597Y-538459D01*
X-158396Y-538790D01*
X-159166Y-539182D01*
X-159903Y-539634D01*
X-160602Y-540142D01*
X-161259Y-540703D01*
X-161871Y-541314D01*
X-162432Y-541972D01*
X-162940Y-542671D01*
X-163392Y-543408D01*
X-163784Y-544178D01*
X-164115Y-544977D01*
X-164382Y-545799D01*
X-164584Y-546639D01*
X-164719Y-547493D01*
X-164787Y-548355D01*
X-164787Y-549219D01*
X-164719Y-550081D01*
X-164584Y-550934D01*
X-164382Y-551775D01*
X-164115Y-552597D01*
X-163784Y-553396D01*
X-163392Y-554166D01*
X-162940Y-554903D01*
X-162432Y-555602D01*
X-161871Y-556259D01*
X-161259Y-556871D01*
X-160602Y-557432D01*
X-159903Y-557940D01*
X-159166Y-558392D01*
X-158396Y-558784D01*
X-157597Y-559115D01*
X-156775Y-559382D01*
X-155934Y-559584D01*
X-155081Y-559719D01*
X-154219Y-559787D01*
X-153355Y-559787D01*
X-152493Y-559719D01*
X-151639Y-559584D01*
X-150799Y-559382D01*
X-149977Y-559115D01*
X-149178Y-558784D01*
X-148408Y-558392D01*
X-147671Y-557940D01*
X-146972Y-557432D01*
X-146314Y-556871D01*
X-145703Y-556259D01*
X-145142Y-555602D01*
X-144634Y-554903D01*
X-144182Y-554166D01*
X-143790Y-553396D01*
X-143459Y-552597D01*
X-143192Y-551775D01*
X-142990Y-550934D01*
X-142855Y-550081D01*
X-142787Y-549219D01*
X164787Y-549219D02*
X164787Y-548355D01*
X164719Y-547493D01*
X164584Y-546639D01*
X164382Y-545799D01*
X164115Y-544977D01*
X163784Y-544178D01*
X163392Y-543408D01*
X162940Y-542671D01*
X162432Y-541972D01*
X161871Y-541314D01*
X161259Y-540703D01*
X160602Y-540142D01*
X159903Y-539634D01*
X159166Y-539182D01*
X158396Y-538790D01*
X157597Y-538459D01*
X156775Y-538192D01*
X155934Y-537990D01*
X155081Y-537855D01*
X154219Y-537787D01*
X153355Y-537787D01*
X152493Y-537855D01*
X151639Y-537990D01*
X150799Y-538192D01*
X149977Y-538459D01*
X149178Y-538790D01*
X148408Y-539182D01*
X147671Y-539634D01*
X146972Y-540142D01*
X146314Y-540703D01*
X145703Y-541314D01*
X145142Y-541972D01*
X144634Y-542671D01*
X144182Y-543408D01*
X143790Y-544178D01*
X143459Y-544977D01*
X143192Y-545799D01*
X142990Y-546639D01*
X142855Y-547493D01*
X142787Y-548355D01*
X142787Y-549219D01*
X142855Y-550081D01*
X142990Y-550934D01*
X143192Y-551775D01*
X143459Y-552597D01*
X143790Y-553396D01*
X144182Y-554166D01*
X144634Y-554903D01*
X145142Y-555602D01*
X145703Y-556259D01*
X146314Y-556871D01*
X146972Y-557432D01*
X147671Y-557940D01*
X148408Y-558392D01*
X149178Y-558784D01*
X149977Y-559115D01*
X150799Y-559382D01*
X151639Y-559584D01*
X152493Y-559719D01*
X153355Y-559787D01*
X154219Y-559787D01*
X155081Y-559719D01*
X155934Y-559584D01*
X156775Y-559382D01*
X157597Y-559115D01*
X158396Y-558784D01*
X159166Y-558392D01*
X159903Y-557940D01*
X160602Y-557432D01*
X161259Y-556871D01*
X161871Y-556259D01*
X162432Y-555602D01*
X162940Y-554903D01*
X163392Y-554166D01*
X163784Y-553396D01*
X164115Y-552597D01*
X164382Y-551775D01*
X164584Y-550934D01*
X164719Y-550081D01*
X164787Y-549219D01*
X11000Y509568D02*
X11000Y510432D01*
X10932Y511294D01*
X10797Y512148D01*
X10595Y512988D01*
X10328Y513810D01*
X9997Y514609D01*
X9605Y515379D01*
X9153Y516116D01*
X8645Y516815D01*
X8084Y517473D01*
X7473Y518084D01*
X6815Y518645D01*
X6116Y519153D01*
X5379Y519605D01*
X4609Y519997D01*
X3810Y520328D01*
X2988Y520595D01*
X2148Y520797D01*
X1294Y520932D01*
X432Y521000D01*
X-432Y521000D01*
X-1294Y520932D01*
X-2148Y520797D01*
X-2988Y520595D01*
X-3810Y520328D01*
X-4609Y519997D01*
X-5379Y519605D01*
X-6116Y519153D01*
X-6815Y518645D01*
X-7473Y518084D01*
X-8084Y517473D01*
X-8645Y516815D01*
X-9153Y516116D01*
X-9605Y515379D01*
X-9997Y514609D01*
X-10328Y513810D01*
X-10595Y512988D01*
X-10797Y512148D01*
X-10932Y511294D01*
X-11000Y510432D01*
X-11000Y509568D01*
X-10932Y508706D01*
X-10797Y507852D01*
X-10595Y507012D01*
X-10328Y506190D01*
X-9997Y505391D01*
X-9605Y504621D01*
X-9153Y503884D01*
X-8645Y503185D01*
X-8084Y502527D01*
X-7473Y501916D01*
X-6815Y501355D01*
X-6116Y500847D01*
X-5379Y500395D01*
X-4609Y500003D01*
X-3810Y499672D01*
X-2988Y499405D01*
X-2148Y499203D01*
X-1294Y499068D01*
X-432Y499000D01*
X432Y499000D01*
X1294Y499068D01*
X2148Y499203D01*
X2988Y499405D01*
X3810Y499672D01*
X4609Y500003D01*
X5379Y500395D01*
X6116Y500847D01*
X6815Y501355D01*
X7473Y501916D01*
X8084Y502527D01*
X8645Y503185D01*
X9153Y503884D01*
X9605Y504621D01*
X9997Y505391D01*
X10328Y506190D01*
X10595Y507012D01*
X10797Y507852D01*
X10932Y508706D01*
X11000Y509568D01*
M02*
