G04 EAGLE Gerber RS-274X export*
G75*
%MOMM*%
%FSLAX34Y34*%
%LPD*%
%INSoldermask Bottom*%
%IPPOS*%
%AMOC8*
5,1,8,0,0,1.08239X$1,22.5*%
G01*
G04 Define Apertures*
%ADD10C,1.981200*%
%ADD11C,2.082800*%
%ADD12C,1.633200*%
%ADD13C,0.959600*%
D10*
X114300Y-548100D03*
X114300Y-522700D03*
X114300Y-497300D03*
X114300Y-471900D03*
X114300Y-446500D03*
X114300Y-421100D03*
X114300Y-395700D03*
X114300Y-370300D03*
X114300Y-344900D03*
X114300Y-319500D03*
X114300Y-294100D03*
X114300Y-268700D03*
X114300Y-243300D03*
X-114300Y-497300D03*
X-114300Y-471900D03*
X-114300Y-446500D03*
X-114300Y-421100D03*
X-114300Y-395700D03*
X-114300Y-370300D03*
X-114300Y-344900D03*
X-114300Y-319500D03*
X-114300Y-294100D03*
X-114300Y-268700D03*
X-114300Y-243300D03*
X-114300Y-548100D03*
X-114300Y-522700D03*
D11*
X-32512Y211806D03*
X32512Y211806D03*
X-32512Y166594D03*
X32512Y166594D03*
X-129412Y211806D03*
X-64388Y211806D03*
X-129412Y166594D03*
X-64388Y166594D03*
X64388Y211806D03*
X129412Y211806D03*
X64388Y166594D03*
X129412Y166594D03*
X-22606Y253588D03*
X-22606Y318612D03*
X22606Y253588D03*
X22606Y318612D03*
X81788Y438146D03*
X146812Y438146D03*
X81788Y392934D03*
X146812Y392934D03*
X81788Y-154454D03*
X146812Y-154454D03*
X81788Y-199666D03*
X146812Y-199666D03*
X-32512Y-154454D03*
X32512Y-154454D03*
X-32512Y-199666D03*
X32512Y-199666D03*
X-32512Y438146D03*
X32512Y438146D03*
X-32512Y392934D03*
X32512Y392934D03*
X-146812Y632206D03*
X-81788Y632206D03*
X-146812Y586994D03*
X-81788Y586994D03*
X-146812Y438146D03*
X-81788Y438146D03*
X-146812Y392934D03*
X-81788Y392934D03*
X-146812Y-154454D03*
X-81788Y-154454D03*
X-146812Y-199666D03*
X-81788Y-199666D03*
X-32512Y-10154D03*
X32512Y-10154D03*
X-32512Y-55366D03*
X32512Y-55366D03*
X-146812Y-10154D03*
X-81788Y-10154D03*
X-146812Y-55366D03*
X-81788Y-55366D03*
X81788Y-10154D03*
X146812Y-10154D03*
X81788Y-55366D03*
X146812Y-55366D03*
X41164Y-558112D03*
X41164Y-493088D03*
X86376Y-558112D03*
X86376Y-493088D03*
X-85836Y-558112D03*
X-85836Y-493088D03*
X-40624Y-558112D03*
X-40624Y-493088D03*
X-22606Y59788D03*
X-22606Y124812D03*
X22606Y59788D03*
X22606Y124812D03*
X41164Y-443812D03*
X41164Y-378788D03*
X86376Y-443812D03*
X86376Y-378788D03*
X-85836Y-443812D03*
X-85836Y-378788D03*
X-40624Y-443812D03*
X-40624Y-378788D03*
X41164Y-329512D03*
X41164Y-264488D03*
X86376Y-329512D03*
X86376Y-264488D03*
X-85836Y-329512D03*
X-85836Y-264488D03*
X-40624Y-329512D03*
X-40624Y-264488D03*
D12*
X-150000Y-433132D03*
X-150000Y-331532D03*
X148285Y-433132D03*
X148285Y-331532D03*
D13*
X-19558Y-248666D03*
M02*
